<svg xmlns="http://www.w3.org/2000/svg" viewBox="0 0 120 120" fill="none">
  <g opacity="0.6">
    <!-- Main vine stem -->
    <path d="M0 0 Q30 10 20 40 Q15 55 25 70 Q30 80 20 100 Q15 110 10 120" 
          stroke="#6B8E6B" stroke-width="2" fill="none" stroke-linecap="round"/>
    <path d="M0 0 Q10 30 40 20 Q55 15 70 25 Q80 30 100 20 Q110 15 120 10" 
          stroke="#6B8E6B" stroke-width="2" fill="none" stroke-linecap="round"/>
    
    <!-- Leaves -->
    <path d="M15 25 Q20 15 25 20 Q20 30 15 25Z" fill="#6B8E6B" opacity="0.5"/>
    <path d="M25 15 Q35 10 30 20 Q25 18 25 15Z" fill="#6B8E6B" opacity="0.4"/>
    <path d="M10 45 Q15 35 20 40 Q15 50 10 45Z" fill="#6B8E6B" opacity="0.5"/>
    <path d="M30 30 Q40 25 35 35 Q30 33 30 30Z" fill="#6B8E6B" opacity="0.35"/>
    <path d="M20 60 Q25 50 30 55 Q25 65 20 60Z" fill="#6B8E6B" opacity="0.45"/>
    <path d="M40 15 Q50 10 45 20 Q40 18 40 15Z" fill="#6B8E6B" opacity="0.3"/>
    <path d="M15 75 Q20 65 25 70 Q20 80 15 75Z" fill="#6B8E6B" opacity="0.4"/>
    <path d="M55 20 Q65 15 60 25 Q55 23 55 20Z" fill="#6B8E6B" opacity="0.3"/>
    <path d="M22 85 Q27 75 32 80 Q27 90 22 85Z" fill="#6B8E6B" opacity="0.35"/>
    
    <!-- Small decorative berries/buds -->
    <circle cx="18" cy="35" r="1.5" fill="#9B7EC8" opacity="0.4"/>
    <circle cx="35" cy="18" r="1.5" fill="#9B7EC8" opacity="0.3"/>
    <circle cx="12" cy="55" r="1" fill="#C9A84C" opacity="0.3"/>
    <circle cx="50" cy="22" r="1" fill="#C9A84C" opacity="0.25"/>
  </g>
</svg>